# xmcd
#
# Track frame offsets:
#	150
#	17844
#	32521
#	52206
#	70436
#	86326
#	101303
#	112554
#	127127
#	137967
#	152178
#	170095
#	181136
#	194978
#	210276
#	219694
#	232860
#	245058
#	258280
#	274177
#
# Disc length: 4296 seconds
#
# Revision: 1
# Processed by: cddbd v1.5.2PL0 Copyright (c) Steve Scherf et al.
# Submitted via: audiograbber 1.83.01
#
DISCID=2510c614
DTITLE=Circuit Rider Records 2001 - Volumne 34
DYEAR=1900
DGENRE=Gospel
TTITLE0=Gene Callahan - Since I've Accepted him
TTITLE1=Steve White - My House Belongs To You
TTITLE2=Wtvette Davis - If I Could Hear Mother Pray Again
TTITLE3=Charlie Johnson - Life's Railway To Heaven
TTITLE4=Othla Geeselin - All The Glory
TTITLE5=Jim Wilkerson - Precious Jesus
TTITLE6=Darlene Jones - Open The Door
TTITLE7=Shirley Hayes - Twenty Thousand Twenty Five
TTITLE8=Sue Peters - I'm His Servant
TTITLE9=Linda Taylor - One Gentle Touch
TTITLE10=Kim Harper - The Ending Of Time
TTITLE11=Maynard Criket Hill - I Wasn' Worth Saving
TTITLE12=Them Bowmans - Jesus' Palms Were Red
TTITLE13=Tommy Smith - Father If You're Listening
TTITLE14=Flowers Family - Faith Man
TTITLE15=Gloria Wilson - Write God's Word
TTITLE16=Seven By Faith - I'm Gonna Fly
TTITLE17=The Marksmen - Don't You Know
TTITLE18=Gene Crain - Noah's March
TTITLE19=Them Bowmans  - The Radio Show
EXTD=
EXTT0=
EXTT1=
EXTT2=
EXTT3=
EXTT4=
EXTT5=
EXTT6=
EXTT7=
EXTT8=
EXTT9=
EXTT10=
EXTT11=
EXTT12=
EXTT13=
EXTT14=
EXTT15=
EXTT16=
EXTT17=
EXTT18=
EXTT19=
PLAYORDER=
